<svg width="238" height="250" viewBox="0 0 238 250" fill="none" xmlns="http://www.w3.org/2000/svg">
<path d="M78.579 132.891C74.5673 134.365 77.1104 133.162 79.6059 132.834C83.0642 132.38 86.7749 132.03 90.2642 131.976C90.4657 131.973 93.4592 131.618 92.0925 132.12C89.827 132.952 87.5662 133.958 85.1854 134.395C80.9917 135.163 69.0765 139.991 73.0786 138.521C73.2635 138.453 72.8991 137.209 73.218 136.84C73.9506 135.99 74.4132 134.927 74.6136 133.824C74.8199 132.688 77.6687 132.178 78.7016 131.799C80.2832 131.218 80.816 130.158 82.0557 129.519C82.565 129.256 83.096 128.271 83.5256 127.815C84.1632 127.137 85.0399 127.111 85.6643 126.505C86.658 125.541 88.1013 124.565 89.1525 123.798C91.1967 122.307 86.8009 121.751 85.8012 121.885C84.5843 122.048 84.6651 123.058 83.8132 123.605C83.1612 124.023 82.2408 124.212 81.5143 124.478C79.2642 125.305 79.3226 123.504 78.6269 121.609C77.7506 119.223 79.3617 120.03 81.2038 119.353C82.7512 118.785 84.2986 118.216 85.846 117.648C94.0579 114.632 100.524 108.048 108.362 104.139C116.27 100.195 124.256 97.2542 132.645 94.1732C137.558 92.3685 143.171 90.529 148.094 92.8071C148.731 93.102 148.944 94.0633 149.529 94.2591C150.136 94.462 150.936 94.0778 151.399 94.3582C152.495 95.0211 153.664 95.6385 154.725 96.2804C155.743 96.8959 157.336 98.0041 158.366 98.3486C159.282 98.6549 160.015 101.106 160.954 101.036C162.162 100.947 163.281 101.294 164.485 101.457C167.039 101.804 166.368 102.136 164.626 103.268C163.22 104.183 161.381 104.496 159.88 105.244C155.504 107.426 150.903 109.159 146.693 111.659C141.992 114.451 137.054 117.664 132.092 119.932C124.739 123.293 116.943 124.605 109.176 126.486C107.682 126.848 103.149 127.912 106.71 126.111C113.688 122.581 120.752 119.312 127.935 116.22C134.108 113.563 140.372 111.245 146.679 108.928C149.795 107.784 153.168 106.004 156.506 105.726C157.57 105.638 158.614 105.035 159.622 104.699C161.008 104.235 162.534 104.596 163.91 104.171C164.896 103.867 167.122 105.134 167.312 103.446" stroke="white" stroke-width="31" stroke-linecap="round"/>
<path d="M160.783 98.5087C161.069 99.2889 161.743 100.34 160.98 101.027C160.262 101.673 162.802 100.387 163.708 100.054C164.57 99.7374 165.426 99.3529 166.352 99.7234C167.361 100.128 167.722 99.1036 166.417 99.5832" stroke="white" stroke-width="31" stroke-linecap="round"/>
<path d="M151.362 95.6816C152.178 95.3817 154.636 94.1137 154.716 93.4019" stroke="white" stroke-width="31" stroke-linecap="round"/>
<path d="M180.413 79.7419C176.643 76.4391 171.647 74.4388 166.314 73.8408C163.709 71.3886 160.115 69.7255 156.184 69.4647C142.89 69.234 130.223 73.0338 119.334 77.0329C115.955 78.274 112.576 79.5151 109.334 81.1317L107.457 81.8213C100.698 84.3035 93.7021 87.2991 85.7174 91.0839C76.6062 95.2824 66.7441 99.7567 58.9124 108.599C55.8471 111.855 53.8468 116.851 53.4864 121.671C52.2602 122.973 50.6587 124.414 49.4326 125.716C44.7657 130.413 43.0795 137.424 44.1595 143.846C40.0442 150.045 40.1657 166.619 43.7744 172.964C47.2451 178.933 53.6815 182.535 61.1296 181.93C64.5471 181.953 68.4398 180.95 72.1945 179.571C75.9493 178.192 79.1907 176.575 82.0566 175.096C84.3095 174.269 86.049 173.204 87.9264 172.515C94.547 169.657 101.919 166.523 110.93 163.214L112.432 162.662C119.191 160.18 126.463 157.935 134.486 155.415C138.003 154.549 142.271 153.408 147.29 151.99C148.041 151.715 149.819 151.914 151.083 151.876C153.098 151.562 155.627 151.485 158.018 151.033C159.52 150.482 161.535 150.168 163.037 149.616C173.55 145.755 179.88 137.464 180.096 119.488C187.153 114.339 190.579 106.263 189.936 97.5505C189.094 90.6158 185.86 84.133 180.413 79.7419ZM180.848 98.3315C181.905 108.17 174.51 114.721 165.323 116.391C161.805 117.257 156.986 116.896 153.844 117.624C149.576 118.766 145.308 119.907 140.802 121.562C132.641 123.707 124.618 126.227 116.871 129.499C108.986 132.395 101.101 135.291 93.3538 138.562C85.9821 141.695 78.0357 146.745 69.3232 147.388C60.6108 148.031 56.6499 138.406 61.3782 131.556C61.9912 130.905 62.8419 129.74 63.6925 128.576C61.6622 124.208 61.9844 118.124 65.6627 114.216C72.0308 107.19 80.7665 103.129 89.5022 99.0686C96.4983 96.073 103.87 92.9395 110.866 89.9438C124.996 84.3281 140.628 78.1608 155.701 78.5909C158.743 78.752 161.072 80.4533 161.524 82.844C170.988 81.9252 180.029 87.9792 180.848 98.3315Z" fill="#F1A33F"/>
</svg>
