<svg width="180" height="202" viewBox="0 0 180 202" fill="none" xmlns="http://www.w3.org/2000/svg">
<path d="M43.3975 102.677C43.3975 105.053 43.2657 107.465 43.3975 109.837C43.429 110.404 44.2029 111.218 44.3258 110.235C44.5613 108.351 44.3523 106.323 44.3523 104.427C44.3523 101.502 41.1845 101.445 38.6236 101.722C35.9364 102.012 40.746 112.614 42.4427 113.179" stroke="white" stroke-width="3" stroke-linecap="round"/>
<path d="M49.1264 108.405C50.8495 108.597 51.5484 110.315 53.6616 110.315C56.5169 110.315 50.6783 106.489 50.0811 106.284C46.9172 105.196 44.237 105.238 41.4615 106.973C38.2539 108.978 39.6553 109.223 41.4615 111.933C42.0051 112.748 42.3367 113.763 41.382 114.505C41.1136 114.714 40.9284 113.531 41.9654 113.285C44.408 112.707 47.4219 113.202 49.922 113.179C53.9182 113.143 59.0551 112.393 62.5995 110.315C64.0028 109.492 67.461 109.928 68.2221 108.405" stroke="white" stroke-width="31" stroke-linecap="round"/>
<path d="M68.2222 108.405C71.9321 105.755 77.0558 105.553 81.1118 103.525C83.2607 102.451 84.8751 100.282 86.9466 98.9636C92.651 95.3335 96.4342 89.1577 93.3119 82.467C92.1068 79.8846 93.9482 75.8243 94.5054 73.3169C94.7253 72.3271 95.6618 70.8534 96.1497 69.9751C96.7585 68.8793 96.3884 66.9153 96.3884 65.6786C96.3884 64.1362 95.4336 63.3702 95.4336 62.0981" stroke="white" stroke-width="31" stroke-linecap="round"/>
<path d="M102.117 75.9426C102.602 81.7575 106.573 87.147 107.342 92.9166C107.771 96.1335 107.895 99.3997 108.801 102.571C109.33 104.424 109.884 108.381 111.188 109.838C112.507 111.313 112.229 112.702 114.529 112.702C116.74 112.702 119.301 113.071 121.478 112.675C123.515 112.305 124.669 111.27 126.835 111.27C128.94 111.27 131.044 111.27 133.148 111.27C136.728 111.27 140.309 111.27 143.889 111.27C145.029 111.27 146.027 112.035 146.886 112.808C147.564 113.418 148.69 112.702 149.273 113.285C149.692 113.704 148.271 113.657 148.159 113.657C146.48 113.657 145.355 112.337 144.154 111.296C142.468 109.835 140.266 108.471 138.876 106.735C137.264 104.719 135.134 105.064 132.67 105.064C130.949 105.064 130.842 105.503 129.488 106.045C121.449 109.261 113.554 112.877 105.698 116.521C100.156 119.091 94.6836 122.202 89.5987 125.592C86.5715 127.61 86.0751 130.359 81.5361 129.305C80.3416 129.027 79.2208 127.979 78.0086 127.979C77.7369 127.979 76.2171 128.3 77.1865 128.429C81.0659 128.947 85.0263 128.866 88.9091 129.464C93.3399 130.145 97.8193 131.75 102.037 133.256C102.885 133.559 106.043 135.193 106.52 136.094C107.737 138.394 100.548 140.854 98.9875 141.823C95.6917 143.869 90.1822 147.258 90.1822 151.848C90.1822 153.567 88.2134 162.189 91.137 162.351C93.9973 162.51 95.7285 161.708 97.0779 159.009C98.1454 156.874 99.6435 154.886 100.685 152.803" stroke="white" stroke-width="31" stroke-linecap="round"/>
<path d="M112.083 102.4C112.883 102.4 114.083 102.4 114.883 102.4C116.483 102.4 118.483 102 120.083 102C117.283 102 114.483 102 112.083 102C112.083 102 112.083 102 112.083 102.4ZM176.483 114.4C176.083 104.8 169.683 97.2 160.883 94.8C159.683 86.8 153.283 80.8 144.883 80.4C138.083 80 131.283 80 124.083 80C124.083 71.2 124.083 61.2 120.483 52C118.483 47.2 114.083 44 109.283 42.8C108.483 42 107.683 41.2 106.883 40.4L106.083 39.6C102.883 36.4 98.0828 34.8 93.2828 34.8C84.0828 34.8 76.0828 40.4 73.6828 48.4C73.2828 49.6 72.8828 51.2 72.4828 52.4C67.6828 54.8 64.0828 58.8 62.4828 64C60.4828 70 59.2828 76 58.0828 82C48.8828 82.8 39.6828 83.6 30.8828 84.8C24.8828 85.2 20.4828 89.2 18.4828 94.4L14.8828 94.8L15.2828 101.2C11.6828 102.8 8.88281 106 7.28281 109.6L3.68281 110L4.88281 122.8C5.28281 126.8 5.68281 131.2 5.68281 135.6V136.8L6.08281 138.4C6.48281 140 6.88281 141.6 6.88281 144L8.48281 154.4H19.2828C19.6828 154.4 20.0828 154.4 20.4828 154.4C24.8828 154.4 29.2828 154.4 33.2828 154C36.0828 154 38.8828 153.6 41.2828 153.6C45.2828 153.6 49.2828 153.6 52.8828 153.2C52.8828 153.6 52.8828 154 52.8828 154.4C52.4828 162.8 52.0828 172.4 54.0828 181.2C56.4828 192.4 64.4828 200 74.8828 201.6C76.0828 201.6 77.2828 201.6 78.4828 201.6C80.0828 201.6 81.2828 201.6 82.8828 201.2C84.8828 202 86.4828 202 88.4828 202C93.2828 202 98.4828 200 101.683 196.4C104.483 193.6 106.083 190 106.483 186C107.683 185.6 108.483 184.8 109.283 184C110.883 183.2 112.083 182 112.883 181.2C115.683 178.4 117.283 174.4 117.683 170.8C120.483 169.2 122.883 166.8 124.483 164C126.483 160 126.883 156 126.083 151.6C132.883 151.6 139.683 151.2 146.883 150.4C156.883 149.6 164.083 142.4 164.883 133.2C172.083 130 176.883 122.8 176.483 114.4ZM156.883 122.4C142.083 124 127.283 124 112.483 124.4C112.883 129.6 112.883 135.2 112.883 140.8C112.883 140.8 113.283 140.8 113.283 141.2C113.683 145.2 113.683 148.4 112.883 152.4C115.283 155.6 113.283 161.2 108.483 160C107.283 159.6 106.083 159.2 104.883 158.8C104.483 158.8 104.083 158.4 103.683 158.4C103.683 158.8 103.683 158.8 103.683 158.8C104.483 162 105.683 165.6 105.283 168.8C105.283 173.6 98.4828 176.4 95.6828 172C93.2828 173.6 90.4828 174 87.6828 173.6C82.0828 172.8 78.8828 168.4 77.6828 163.2C75.2828 153.6 76.8828 142.4 76.8828 132.8C76.8828 130 76.8828 127.6 77.2828 125.2C68.8828 125.2 60.4828 125.6 52.4828 125.6C45.2828 126 38.0828 126.8 30.8828 126.4C30.4828 124.4 30.0828 122 29.2828 120C29.2828 115.2 29.2828 110.8 28.4828 106C45.2828 104.8 61.6828 103.6 78.4828 103.2C78.4828 102.4 78.4828 102 78.4828 101.6C63.2828 101.6 48.0828 101.6 32.8828 102C29.6828 102 29.2828 97.6 32.4828 97.2C48.0828 95.2 63.2828 94 78.8828 93.2C80.0828 79.2 81.6828 65.2 85.6828 52C87.2828 47.6 94.0828 45.6 97.6828 48.8C98.0828 49.2 98.4828 49.6 98.4828 49.6C100.883 52 101.683 55.2 100.883 58.4C100.883 60 100.883 61.6 100.883 63.2C101.283 60.8 102.083 58.8 102.883 56.8C103.683 54.4 107.683 54.4 108.483 56.8C112.483 66.4 111.283 78 111.283 88C111.683 89.6 111.683 90.8 111.683 92.4C122.483 92.4 133.683 92.4 144.483 92.8C150.883 93.2 149.283 103.2 142.883 102.8C142.083 102.8 141.283 102.8 140.083 102.8C140.883 102.8 141.683 103.2 142.483 103.6C144.083 104 144.883 105.2 145.683 106.4C148.483 106.4 151.683 106.4 154.883 106.4C165.283 106.4 167.683 121.6 156.883 122.4Z" fill="#F1A33F"/>
</svg>
