<svg width="70" height="70" viewBox="0 0 70 70" fill="none" xmlns="http://www.w3.org/2000/svg">
<path d="M41.7508 41.7497C36.2457 47.4256 35.8542 54.5003 35.3796 70C49.8304 70 59.7966 69.9502 64.9458 64.9505C69.9525 59.8002 70 49.35 70 35.3749C54.5051 35.8744 47.422 36.2505 41.7508 41.7497ZM0 35.3749C0 49.35 0.0474695 59.8002 5.05425 64.9505C10.2034 69.9502 20.1696 70 34.6204 70C34.1221 54.5003 33.7543 47.4256 28.2492 41.7497C22.578 36.2505 15.4949 35.8495 0 35.3749ZM34.6204 0C20.2051 0 10.2034 0.0498444 5.05425 5.04951C0.0474695 10.1998 0 20.65 0 34.6251C15.4949 34.1244 22.578 33.7495 28.2492 28.2503C33.7543 22.5744 34.1458 15.4997 34.6204 0ZM41.7508 28.2503C36.2457 22.5744 35.8542 15.4997 35.3796 0C49.8304 0 59.7966 0.0498444 64.9458 5.04951C69.9525 10.1998 70 20.65 70 34.6251C54.5051 34.1244 47.422 33.7495 41.7508 28.2503Z" fill="black"/>
</svg>
